<svg width="24" height="24" viewBox="0 0 24 24" fill="none" xmlns="http://www.w3.org/2000/svg">
<path d="M24 8.99968H15.0001L18.3646 5.6353C16.6651 3.93586 14.4046 2.99989 12.0001 2.99989C9.59563 2.99989 7.33665 3.93586 5.63566 5.6353C3.93618 7.33474 3.00019 9.59516 3.00019 11.9996C3.00019 14.404 3.93618 16.6629 5.63566 18.3638C6.46951 19.2022 7.46138 19.8668 8.55385 20.3191C9.64632 20.7715 10.8177 21.0027 12.0001 20.9993C13.2837 21.0033 14.553 20.7309 15.7219 20.2005C16.8908 19.6702 17.9318 18.8944 18.774 17.9259L21.0315 19.9013C19.4464 21.7132 17.3529 23.0064 15.0231 23.6129C12.6933 24.2194 10.2349 24.1112 7.96744 23.3022C5.69998 22.4932 3.72828 21.0209 2.30858 19.0767C0.888886 17.1324 0.0868332 14.8061 0.00665849 12.4C-0.0735162 9.99398 0.571894 7.61944 1.85901 5.58499C3.14613 3.55055 5.01545 1.95028 7.22402 0.992154C9.4326 0.0340274 11.8783 -0.237653 14.2433 0.212418C16.6083 0.66249 18.7833 1.8135 20.4855 3.51588L24 0V8.99968Z" fill="black"/>
</svg>
